<?xml version="1.0" encoding="UTF-8" standalone="no"?>
<!-- Created with Inkscape (http://www.inkscape.org/) -->

<svg
   xmlns:osb="http://www.openswatchbook.org/uri/2009/osb"
   xmlns:dc="http://purl.org/dc/elements/1.1/"
   xmlns:cc="http://creativecommons.org/ns#"
   xmlns:rdf="http://www.w3.org/1999/02/22-rdf-syntax-ns#"
   xmlns:svg="http://www.w3.org/2000/svg"
   xmlns="http://www.w3.org/2000/svg"
   xmlns:xlink="http://www.w3.org/1999/xlink"
   xmlns:sodipodi="http://sodipodi.sourceforge.net/DTD/sodipodi-0.dtd"
   xmlns:inkscape="http://www.inkscape.org/namespaces/inkscape"
   width="210mm"
   height="297mm"
   id="svg2"
   version="1.1"
   inkscape:version="0.48.2 r9819"
   sodipodi:docname="Icon_src.svg">
  <defs
     id="defs4">
    <linearGradient
       id="linearGradient5950"
       osb:paint="solid">
      <stop
         style="stop-color:#ffba00;stop-opacity:1;"
         offset="0"
         id="stop5952" />
    </linearGradient>
    <linearGradient
       id="linearGradient5938">
      <stop
         style="stop-color:#ffcf00;stop-opacity:1;"
         offset="0"
         id="stop5940" />
      <stop
         style="stop-color:#ffcf00;stop-opacity:0;"
         offset="1"
         id="stop5942" />
    </linearGradient>
    <linearGradient
       id="linearGradient5812">
      <stop
         style="stop-color:#47fa02;stop-opacity:1;"
         offset="0"
         id="stop5814" />
      <stop
         id="stop5822"
         offset="0.62842137"
         style="stop-color:#237d01;stop-opacity:0.49803922;" />
      <stop
         style="stop-color:#000000;stop-opacity:0;"
         offset="1"
         id="stop5816" />
    </linearGradient>
    <linearGradient
       inkscape:collect="always"
       id="linearGradient5790">
      <stop
         style="stop-color:#00ff6c;stop-opacity:1;"
         offset="0"
         id="stop5792" />
      <stop
         style="stop-color:#ffffff;stop-opacity:1"
         offset="1"
         id="stop5794" />
    </linearGradient>
    <linearGradient
       id="linearGradient5766"
       osb:paint="gradient">
      <stop
         style="stop-color:#00ffff;stop-opacity:1;"
         offset="0"
         id="stop5768" />
      <stop
         style="stop-color:#ffffff;stop-opacity:1"
         offset="1"
         id="stop5770" />
    </linearGradient>
    <inkscape:path-effect
       effect="bend_path"
       id="path-effect5600"
       is_visible="true"
       bendpath="m 196.42857,304.7487 382.85715,0"
       prop_scale="1"
       scale_y_rel="false"
       vertical="false" />
    <inkscape:path-effect
       effect="bend_path"
       id="path-effect5598"
       is_visible="true"
       bendpath="m 196.42857,304.7487 382.85715,0"
       prop_scale="1"
       scale_y_rel="false"
       vertical="false" />
    <linearGradient
       inkscape:collect="always"
       id="linearGradient5468">
      <stop
         style="stop-color:#0000ff;stop-opacity:1"
         offset="0"
         id="stop5470" />
      <stop
         style="stop-color:#000000;stop-opacity:0;"
         offset="1"
         id="stop5472" />
    </linearGradient>
    <linearGradient
       id="linearGradient5277"
       osb:paint="solid">
      <stop
         style="stop-color:#000000;stop-opacity:1;"
         offset="0"
         id="stop5279" />
    </linearGradient>
    <linearGradient
       id="linearGradient3837"
       osb:paint="solid">
      <stop
         style="stop-color:#000000;stop-opacity:1;"
         offset="0"
         id="stop3839" />
    </linearGradient>
    <inkscape:path-effect
       effect="bend_path"
       id="path-effect3825"
       is_visible="true"
       bendpath="m 82.832504,254.34167 50.507626,0"
       prop_scale="1"
       scale_y_rel="false"
       vertical="false" />
    <linearGradient
       id="linearGradient3004">
      <stop
         style="stop-color:#f2f2f2;stop-opacity:1;"
         offset="0"
         id="stop3006" />
      <stop
         style="stop-color:#f2f2f2;stop-opacity:0;"
         offset="1"
         id="stop3008" />
    </linearGradient>
    <linearGradient
       inkscape:collect="always"
       xlink:href="#linearGradient5468"
       id="linearGradient5636"
       gradientUnits="userSpaceOnUse"
       gradientTransform="translate(20.714285,10.714286)"
       x1="318.75"
       y1="352.00507"
       x2="415.53574"
       y2="380.57651" />
    <linearGradient
       inkscape:collect="always"
       xlink:href="#linearGradient5790"
       id="linearGradient5800"
       x1="269.47089"
       y1="183.631"
       x2="507.33643"
       y2="263.43304"
       gradientUnits="userSpaceOnUse" />
    <filter
       inkscape:collect="always"
       id="filter5886">
      <feGaussianBlur
         inkscape:collect="always"
         stdDeviation="0.81830183"
         id="feGaussianBlur5888" />
    </filter>
    <filter
       inkscape:collect="always"
       id="filter5992">
      <feGaussianBlur
         inkscape:collect="always"
         stdDeviation="0.85972956"
         id="feGaussianBlur5994" />
    </filter>
  </defs>
  <sodipodi:namedview
     id="base"
     pagecolor="#ffffff"
     bordercolor="#666666"
     borderopacity="1.0"
     inkscape:pageopacity="0.0"
     inkscape:pageshadow="2"
     inkscape:zoom="0.98994949"
     inkscape:cx="197.1281"
     inkscape:cy="676.73342"
     inkscape:document-units="px"
     inkscape:current-layer="layer1"
     showgrid="false"
     inkscape:window-width="1680"
     inkscape:window-height="988"
     inkscape:window-x="-8"
     inkscape:window-y="-8"
     inkscape:window-maximized="1" />
  <metadata
     id="metadata7">
    <rdf:RDF>
      <cc:Work
         rdf:about="">
        <dc:format>image/svg+xml</dc:format>
        <dc:type
           rdf:resource="http://purl.org/dc/dcmitype/StillImage" />
        <dc:title />
      </cc:Work>
    </rdf:RDF>
  </metadata>
  <g
     inkscape:label="レイヤー 1"
     inkscape:groupmode="layer"
     id="layer1">
    <path
       style="fill:none;stroke:#6f38fb;stroke-width:20;stroke-linecap:round;stroke-linejoin:round;stroke-miterlimit:4;stroke-opacity:1;stroke-dasharray:none;filter:url(#filter5886)"
       d="m 121.82035,297.48693 -0.19824,120.22496 97.98886,-0.475"
       id="path5810"
       inkscape:connector-curvature="0"
       transform="matrix(0.80639771,0,0,1,30.149222,0)"
       inkscape:export-xdpi="108.04938"
       inkscape:export-ydpi="108.04938" />
    <g
       id="g5996"
       transform="matrix(0.80639771,0,0,1,29.334638,61.619305)"
       inkscape:export-filename="C:\workspace\UsbTeatherWidget\path5810.png"
       inkscape:export-xdpi="108.04938"
       inkscape:export-ydpi="108.04938">
      <path
         style="fill:#ffccaa;stroke:#000000;stroke-width:2.40286064;stroke-linecap:round;stroke-miterlimit:4;stroke-opacity:1"
         d="m 251.53224,288.07647 272.64981,-1.42857 c 3.61882,-0.019 5.02466,3.24236 6.53224,6.53224 l 48.57143,105.99427 c 1.50758,3.28989 -2.91338,6.53224 -6.53224,6.53224 l -369.79267,0 c -3.61886,0 -8.05678,-3.25018 -6.53224,-6.53224 L 245,294.60871 c 1.52454,-3.28206 2.91343,-6.51327 6.53224,-6.53224 z"
         id="rect5551"
         inkscape:connector-curvature="0"
         sodipodi:nodetypes="sssssssss" />
      <path
         sodipodi:nodetypes="sssssssss"
         style="fill:url(#linearGradient5636);fill-opacity:1;stroke:#000000;stroke-width:2.5;stroke-linecap:round;stroke-miterlimit:4;stroke-opacity:1"
         d="m 347.07106,368.07648 78.715,-0.71428 c 3.91721,-0.0356 5.3347,3.55954 7.07107,7.07107 l 6.42857,13.00072 c 1.73637,3.51152 -3.1537,7.07106 -7.07107,7.07106 l -90.85786,0 c -3.91737,0 -8.72307,-3.51906 -7.07107,-7.07106 l 5.71429,-12.28644 c 1.65199,-3.552 3.15386,-7.03552 7.07107,-7.07107 z"
         id="rect5466"
         inkscape:connector-curvature="0" />
      <path
         inkscape:connector-curvature="0"
         id="rect3002"
         d="m 301.33389,301.72458 22.99052,0 c 2.47659,0 4.04407,1.13877 3.51453,2.55332 l -2.73104,7.29518 c -0.52955,1.41453 -2.94965,2.5533 -5.42624,2.5533 l -22.99053,0 c -2.47659,0 -4.04408,-1.13877 -3.51453,-2.5533 l 2.73104,-7.29518 c 0.52955,-1.41455 2.94965,-2.55332 5.42625,-2.55332 z"
         style="fill:#ececec;fill-opacity:1;stroke:#000000;stroke-width:1.19448125;stroke-linecap:round;stroke-miterlimit:4;stroke-opacity:1;stroke-dasharray:none" />
      <path
         inkscape:connector-curvature="0"
         id="rect3002-5"
         d="m 337.81888,301.72458 22.99054,0 c 2.47659,0 4.04407,1.13877 3.51451,2.55332 l -2.73102,7.29518 c -0.52955,1.41453 -2.94966,2.5533 -5.42626,2.5533 l -22.99053,0 c -2.47658,0 -4.04405,-1.13877 -3.51451,-2.5533 l 2.73103,-7.29518 c 0.52956,-1.41455 2.94965,-2.55332 5.42624,-2.55332 z"
         style="fill:#ececec;fill-opacity:1;stroke:#000000;stroke-width:1.19448125;stroke-linecap:round;stroke-miterlimit:4;stroke-opacity:1;stroke-dasharray:none" />
      <path
         sodipodi:nodetypes="sssssssss"
         inkscape:connector-curvature="0"
         id="rect3002-2"
         d="m 372.78867,301.97712 7.83825,0 c 2.47659,0 3.84333,-0.0916 3.76706,1.4169 l -0.4582,9.06294 c -0.0763,1.50848 0.45948,1.51764 -2.01698,1.54315 l -12.25766,0.12627 c -2.47647,0.0255 -4.04407,-1.13877 -3.51452,-2.5533 l 2.73104,-7.29518 c 0.52955,-1.41455 1.43442,-2.30078 3.91101,-2.30078 z"
         style="fill:#ececec;fill-opacity:1;stroke:#000000;stroke-width:1.19448125;stroke-linecap:round;stroke-miterlimit:4;stroke-opacity:1;stroke-dasharray:none" />
      <path
         sodipodi:nodetypes="sssssssss"
         inkscape:connector-curvature="0"
         id="rect3002-3"
         d="m 386.1289,301.61847 14.17107,0.12627 c 2.39016,0.0213 3.83223,1.32011 4.40944,2.72463 l 2.97686,7.24353 c 0.57721,1.40452 -0.88256,2.50738 -3.27266,2.53523 l -16.25451,0.1894 c -1.43974,0.0168 -1.35864,-0.34697 -1.63152,-1.84075 l -1.46163,-8.00114 c -0.27288,-1.49379 -0.43609,-2.99053 1.06295,-2.97717 z"
         style="fill:#ececec;fill-opacity:1;stroke:#000000;stroke-width:1.16931701;stroke-linecap:round;stroke-miterlimit:4;stroke-opacity:1;stroke-dasharray:none" />
      <path
         inkscape:connector-curvature="0"
         id="rect3002-1"
         d="m 412.37706,301.93414 22.18916,0 c 2.39027,0 4.77925,1.13071 5.35647,2.53523 l 2.97685,7.24353 c 0.57722,1.40452 -0.8824,2.53523 -3.27266,2.53523 l -22.18917,0 c -2.39026,0 -4.77924,-1.13071 -5.35646,-2.53523 l -2.97685,-7.24353 c -0.57722,-1.40452 0.88239,-2.53523 3.27266,-2.53523 z"
         style="fill:#ececec;fill-opacity:1;stroke:#000000;stroke-width:1.16931701;stroke-linecap:round;stroke-miterlimit:4;stroke-opacity:1;stroke-dasharray:none" />
      <path
         inkscape:connector-curvature="0"
         id="rect3002-6"
         d="m 259.38961,316.30741 22.99054,0 c 2.47659,0 4.04406,1.13877 3.51452,2.5533 l -2.73103,7.29519 c -0.52957,1.41452 -2.94966,2.55332 -5.42626,2.55332 l -22.99053,0 c -2.47658,0 -4.04408,-1.1388 -3.51452,-2.55332 l 2.73104,-7.29519 c 0.52954,-1.41453 2.94965,-2.5533 5.42624,-2.5533 z"
         style="fill:#ececec;fill-opacity:1;stroke:#000000;stroke-width:1.19448125;stroke-linecap:round;stroke-miterlimit:4;stroke-opacity:1;stroke-dasharray:none" />
      <path
         inkscape:connector-curvature="0"
         id="rect3002-8"
         d="m 264.84887,301.72458 22.99053,0 c 2.47659,0 4.04407,1.13877 3.51452,2.55332 l -2.73104,7.29518 c -0.52954,1.41453 -2.94966,2.5533 -5.42625,2.5533 l -22.99052,0 c -2.47659,0 -4.04406,-1.13877 -3.51451,-2.5533 l 2.73104,-7.29518 c 0.52954,-1.41455 2.94965,-2.55332 5.42623,-2.55332 z"
         style="fill:#ececec;fill-opacity:1;stroke:#000000;stroke-width:1.19448125;stroke-linecap:round;stroke-miterlimit:4;stroke-opacity:1;stroke-dasharray:none" />
      <path
         inkscape:connector-curvature="0"
         id="rect3002-82"
         d="m 332.35964,316.30741 22.99053,0 c 2.4766,0 4.04407,1.13877 3.51453,2.5533 l -2.73105,7.29519 c -0.52956,1.41452 -2.94966,2.55332 -5.42625,2.55332 l -22.99053,0 c -2.47659,0 -4.04408,-1.1388 -3.51452,-2.55332 l 2.73104,-7.29519 c 0.52954,-1.41453 2.94966,-2.5533 5.42625,-2.5533 z"
         style="fill:#ececec;fill-opacity:1;stroke:#000000;stroke-width:1.19448125;stroke-linecap:round;stroke-miterlimit:4;stroke-opacity:1;stroke-dasharray:none" />
      <path
         sodipodi:nodetypes="ssscsscss"
         inkscape:connector-curvature="0"
         id="rect3002-7"
         d="m 368.84464,316.30741 12.5102,0 c 2.47659,0 3.352,1.29813 3.26198,2.80584 l -0.45818,7.674 c -0.52957,1.41452 -0.67689,1.77709 -3.15341,1.7957 l -16.80335,0.12627 c -2.47652,0.0186 -4.04408,-1.1388 -3.51452,-2.55332 l 2.73104,-7.29519 c 0.52954,-1.41453 2.94965,-2.5533 5.42624,-2.5533 z"
         style="fill:#ececec;fill-opacity:1;stroke:#000000;stroke-width:1.19448125;stroke-linecap:round;stroke-miterlimit:4;stroke-opacity:1;stroke-dasharray:none" />
      <path
         sodipodi:nodetypes="cssssssscc"
         inkscape:connector-curvature="0"
         id="rect3002-71"
         d="m 387.84954,316.53998 17.45406,-0.12627 c 2.39021,-0.0173 4.77925,1.13072 5.35646,2.53524 l 2.97686,7.24352 c 0.57721,1.40452 -0.88241,2.52715 -3.27266,2.53524 l -18.65363,0.0631 c -1.60017,0.005 -4.3218,-0.93632 -4.3463,-2.34583 l -0.13581,-7.81173 c -0.0279,-1.60239 2.00998,-1.96703 2.00998,-1.96703 z"
         style="fill:#ececec;fill-opacity:1;stroke:#000000;stroke-width:1.16931701;stroke-linecap:round;stroke-miterlimit:4;stroke-opacity:1;stroke-dasharray:none" />
      <path
         inkscape:connector-curvature="0"
         id="rect3002-26"
         d="m 418.32771,316.41371 22.18916,0 c 2.39027,0 4.77925,1.13072 5.35646,2.53524 l 2.97686,7.24352 c 0.57722,1.40452 -0.88239,2.53524 -3.27266,2.53524 l -22.18916,0 c -2.39027,0 -4.77925,-1.13072 -5.35647,-2.53524 l -2.97686,-7.24352 c -0.57721,-1.40452 0.8824,-2.53524 3.27267,-2.53524 z"
         style="fill:#ececec;fill-opacity:1;stroke:#000000;stroke-width:1.16931701;stroke-linecap:round;stroke-miterlimit:4;stroke-opacity:1;stroke-dasharray:none" />
      <path
         inkscape:connector-curvature="0"
         id="rect3002-0"
         d="m 253.93035,330.89023 22.99052,0 c 2.4766,0 4.04408,1.13879 3.51454,2.55332 l -2.73106,7.29519 c -0.52955,1.41453 -2.94966,2.55331 -5.42625,2.55331 l -22.99052,0 c -2.47659,0 -4.04406,-1.13878 -3.51451,-2.55331 l 2.73104,-7.29519 c 0.52955,-1.41453 2.94965,-2.55332 5.42624,-2.55332 z"
         style="fill:#ececec;fill-opacity:1;stroke:#000000;stroke-width:1.19448125;stroke-linecap:round;stroke-miterlimit:4;stroke-opacity:1;stroke-dasharray:none" />
      <path
         inkscape:connector-curvature="0"
         id="rect3002-4"
         d="m 295.87463,316.30741 22.99053,0 c 2.47659,0 4.04406,1.13877 3.51452,2.5533 l -2.73104,7.29519 c -0.52956,1.41452 -2.94966,2.55332 -5.42625,2.55332 l -22.99052,0 c -2.4766,0 -4.04409,-1.1388 -3.51452,-2.55332 l 2.73104,-7.29519 c 0.52954,-1.41453 2.94965,-2.5533 5.42624,-2.5533 z"
         style="fill:#ececec;fill-opacity:1;stroke:#000000;stroke-width:1.19448125;stroke-linecap:round;stroke-miterlimit:4;stroke-opacity:1;stroke-dasharray:none" />
      <path
         inkscape:connector-curvature="0"
         id="rect3002-9"
         d="m 290.41536,330.89023 22.99053,0 c 2.47659,0 4.04407,1.13879 3.51452,2.55332 l -2.73104,7.29519 c -0.52954,1.41453 -2.94965,2.55331 -5.42625,2.55331 l -22.99052,0 c -2.47659,0 -4.04406,-1.13878 -3.51453,-2.55331 l 2.73105,-7.29519 c 0.52955,-1.41453 2.94965,-2.55332 5.42624,-2.55332 z"
         style="fill:#ececec;fill-opacity:1;stroke:#000000;stroke-width:1.19448125;stroke-linecap:round;stroke-miterlimit:4;stroke-opacity:1;stroke-dasharray:none" />
      <path
         inkscape:connector-curvature="0"
         id="rect3002-46"
         d="m 326.90037,330.89023 22.99053,0 c 2.47659,0 4.04408,1.13879 3.51453,2.55332 l -2.73105,7.29519 c -0.52953,1.41453 -2.94966,2.55331 -5.42624,2.55331 l -22.99053,0 c -2.4766,0 -4.04408,-1.13878 -3.51454,-2.55331 l 2.73106,-7.29519 c 0.52955,-1.41453 2.94965,-2.55332 5.42624,-2.55332 z"
         style="fill:#ececec;fill-opacity:1;stroke:#000000;stroke-width:1.19448125;stroke-linecap:round;stroke-miterlimit:4;stroke-opacity:1;stroke-dasharray:none" />
      <path
         sodipodi:nodetypes="sscsssscs"
         inkscape:connector-curvature="0"
         id="rect3002-03"
         d="m 363.38538,330.89023 18.06604,0 c 2.4766,0 3.16017,1.26506 2.63064,2.67959 l -0.20567,7.16892 c -0.0433,1.50979 -1.30821,2.41239 -3.78475,2.42704 l -21.34904,0.12627 c -2.47655,0.0146 -4.04406,-1.13878 -3.51451,-2.55331 l 2.73105,-7.29519 c 0.52953,-1.41453 2.94964,-2.55332 5.42624,-2.55332 z"
         style="fill:#ececec;fill-opacity:1;stroke:#000000;stroke-width:1.19448125;stroke-linecap:round;stroke-miterlimit:4;stroke-opacity:1;stroke-dasharray:none" />
      <path
         sodipodi:nodetypes="sssssssss"
         inkscape:connector-curvature="0"
         id="rect3002-45"
         d="m 357.92612,345.47307 22.99053,0 c 2.47659,0 3.404,1.02565 3.38826,2.55331 l -0.0794,7.70825 c -0.0157,1.52768 -2.94961,2.17784 -5.42625,2.17451 l -25.51589,-0.0343 c -2.47665,-0.003 -4.04408,-1.13878 -3.51453,-2.55331 l 2.73104,-7.29518 c 0.52955,-1.41453 2.94965,-2.55331 5.42624,-2.55331 z"
         style="fill:#ececec;fill-opacity:1;stroke:#000000;stroke-width:1.19448125;stroke-linecap:round;stroke-miterlimit:4;stroke-opacity:1;stroke-dasharray:none" />
      <path
         sodipodi:nodetypes="sssssssss"
         inkscape:connector-curvature="0"
         id="rect3002-88"
         d="m 390.0121,330.83015 21.24214,0.0631 c 2.39026,0.007 4.77926,1.13072 5.35647,2.53524 l 2.97686,7.24353 c 0.57722,1.40451 -0.88239,2.53523 -3.27266,2.53523 l -22.18916,0 c -2.39027,0 -4.85217,-0.35961 -5.10393,-2.28269 l -0.95655,-7.30666 c -0.18841,-1.43919 0.56672,-2.79189 1.94683,-2.78778 z"
         style="fill:#ececec;fill-opacity:1;stroke:#000000;stroke-width:1.16931701;stroke-linecap:round;stroke-miterlimit:4;stroke-opacity:1;stroke-dasharray:none" />
      <path
         inkscape:connector-curvature="0"
         id="rect3002-12"
         d="m 424.27835,330.89328 22.18916,0 c 2.39027,0 4.77925,1.13072 5.35647,2.53524 l 2.97685,7.24353 c 0.57722,1.40451 -0.88239,2.53523 -3.27266,2.53523 l -22.18916,0 c -2.39027,0 -4.77925,-1.13072 -5.35647,-2.53523 l -2.97685,-7.24353 c -0.57722,-1.40452 0.88239,-2.53524 3.27266,-2.53524 z"
         style="fill:#ececec;fill-opacity:1;stroke:#000000;stroke-width:1.16931701;stroke-linecap:round;stroke-miterlimit:4;stroke-opacity:1;stroke-dasharray:none" />
      <path
         inkscape:connector-curvature="0"
         id="rect3002-14"
         d="m 284.95611,345.47307 22.99053,0 c 2.4766,0 4.04407,1.13878 3.51452,2.55331 l -2.73104,7.29518 c -0.52955,1.41453 -2.94965,2.55331 -5.42624,2.55331 l -22.99054,0 c -2.47659,0 -4.04407,-1.13878 -3.51452,-2.55331 l 2.73104,-7.29518 c 0.52955,-1.41453 2.94965,-2.55331 5.42625,-2.55331 z"
         style="fill:#ececec;fill-opacity:1;stroke:#000000;stroke-width:1.19448125;stroke-linecap:round;stroke-miterlimit:4;stroke-opacity:1;stroke-dasharray:none" />
      <path
         inkscape:connector-curvature="0"
         id="rect3002-98"
         d="m 321.44111,345.47307 22.99054,0 c 2.47658,0 4.04407,1.13878 3.51451,2.55331 l -2.73102,7.29518 c -0.52955,1.41453 -2.94966,2.55331 -5.42626,2.55331 l -22.99053,0 c -2.47659,0 -4.04406,-1.13878 -3.51452,-2.55331 l 2.73103,-7.29518 c 0.52956,-1.41453 2.94966,-2.55331 5.42625,-2.55331 z"
         style="fill:#ececec;fill-opacity:1;stroke:#000000;stroke-width:1.19448125;stroke-linecap:round;stroke-miterlimit:4;stroke-opacity:1;stroke-dasharray:none" />
      <path
         sodipodi:nodetypes="sssssssss"
         inkscape:connector-curvature="0"
         id="rect3002-24"
         d="m 395.01573,345.37286 22.18916,0 c 2.39027,0 4.77925,1.13071 5.35647,2.53523 l 2.97686,7.24353 c 0.57721,1.40451 -0.88239,2.53523 -3.27266,2.53523 l -22.18916,0 c -6.17834,0 -9.25968,-1.02297 -9.39708,-2.53523 l -0.70402,-7.74861 c -0.1374,-1.51227 2.65016,-2.03015 5.04043,-2.03015 z"
         style="fill:#ececec;fill-opacity:1;stroke:#000000;stroke-width:1.16931701;stroke-linecap:round;stroke-miterlimit:4;stroke-opacity:1;stroke-dasharray:none" />
      <path
         inkscape:connector-curvature="0"
         id="rect3002-52"
         d="m 430.229,345.37286 22.18917,0 c 2.39026,0 4.77925,1.13071 5.35646,2.53523 l 2.97685,7.24353 c 0.57722,1.40451 -0.88239,2.53523 -3.27266,2.53523 l -22.18916,0 c -2.39027,0 -4.77925,-1.13072 -5.35647,-2.53523 l -2.97685,-7.24353 c -0.57721,-1.40452 0.8824,-2.53523 3.27266,-2.53523 z"
         style="fill:#ececec;fill-opacity:1;stroke:#000000;stroke-width:1.16931701;stroke-linecap:round;stroke-miterlimit:4;stroke-opacity:1;stroke-dasharray:none" />
      <path
         inkscape:connector-curvature="0"
         id="rect3002-3-9"
         d="m 447.59033,301.93414 22.18915,0 c 2.39027,0 4.77925,1.13071 5.35647,2.53523 l 2.97686,7.24353 c 0.57721,1.40452 -0.88239,2.53523 -3.27266,2.53523 l -22.18915,0 c -2.39027,0 -4.77926,-1.13071 -5.35647,-2.53523 l -2.97686,-7.24353 c -0.57722,-1.40452 0.88239,-2.53523 3.27266,-2.53523 z"
         style="fill:#ececec;fill-opacity:1;stroke:#000000;stroke-width:1.16931701;stroke-linecap:round;stroke-miterlimit:4;stroke-opacity:1;stroke-dasharray:none" />
      <path
         inkscape:connector-curvature="0"
         id="rect3002-1-9"
         d="m 482.80359,301.93414 22.18917,0 c 2.39026,0 4.77925,1.13071 5.35646,2.53523 l 2.97686,7.24353 c 0.57721,1.40452 -0.88239,2.53523 -3.27266,2.53523 l -22.18916,0 c -2.39027,0 -4.77926,-1.13071 -5.35647,-2.53523 l -2.97686,-7.24353 c -0.57721,-1.40452 0.8824,-2.53523 3.27266,-2.53523 z"
         style="fill:#ececec;fill-opacity:1;stroke:#000000;stroke-width:1.16931701;stroke-linecap:round;stroke-miterlimit:4;stroke-opacity:1;stroke-dasharray:none" />
      <path
         inkscape:connector-curvature="0"
         id="rect3002-71-8"
         d="m 453.54098,316.41371 22.18916,0 c 2.39026,0 4.77924,1.13072 5.35645,2.53524 l 2.97686,7.24352 c 0.57722,1.40452 -0.88239,2.53524 -3.27266,2.53524 l -22.18915,0 c -2.39027,0 -4.77925,-1.13072 -5.35647,-2.53524 l -2.97686,-7.24352 c -0.57721,-1.40452 0.8824,-2.53524 3.27267,-2.53524 z"
         style="fill:#ececec;fill-opacity:1;stroke:#000000;stroke-width:1.16931701;stroke-linecap:round;stroke-miterlimit:4;stroke-opacity:1;stroke-dasharray:none" />
      <path
         inkscape:connector-curvature="0"
         id="rect3002-26-3"
         d="m 488.75424,316.41371 22.18917,0 c 2.39026,0 4.77925,1.13072 5.35645,2.53524 l 2.97688,7.24352 c 0.5772,1.40452 -0.8824,2.53524 -3.27267,2.53524 l -22.18916,0 c -2.39027,0 -4.77926,-1.13072 -5.35646,-2.53524 l -2.97688,-7.24352 c -0.5772,-1.40452 0.88241,-2.53524 3.27267,-2.53524 z"
         style="fill:#ececec;fill-opacity:1;stroke:#000000;stroke-width:1.16931701;stroke-linecap:round;stroke-miterlimit:4;stroke-opacity:1;stroke-dasharray:none" />
      <path
         inkscape:connector-curvature="0"
         id="rect3002-88-8"
         d="m 459.49161,330.89328 22.18917,0 c 2.39026,0 4.77926,1.13072 5.35646,2.53524 l 2.97686,7.24353 c 0.57722,1.40451 -0.88239,2.53523 -3.27266,2.53523 l -22.18916,0 c -2.39027,0 -4.77925,-1.13072 -5.35646,-2.53523 l -2.97687,-7.24353 c -0.5772,-1.40452 0.8824,-2.53524 3.27266,-2.53524 z"
         style="fill:#ececec;fill-opacity:1;stroke:#000000;stroke-width:1.16931701;stroke-linecap:round;stroke-miterlimit:4;stroke-opacity:1;stroke-dasharray:none" />
      <path
         inkscape:connector-curvature="0"
         id="rect3002-12-6"
         d="m 494.70489,330.89328 22.18916,0 c 2.39027,0 4.77926,1.13072 5.35647,2.53524 l 2.97686,7.24353 c 0.5772,1.40451 -0.8824,2.53523 -3.27266,2.53523 l -22.18917,0 c -2.39026,0 -4.77925,-1.13072 -5.35646,-2.53523 l -2.97686,-7.24353 c -0.57721,-1.40452 0.88239,-2.53524 3.27266,-2.53524 z"
         style="fill:#ececec;fill-opacity:1;stroke:#000000;stroke-width:1.16931701;stroke-linecap:round;stroke-miterlimit:4;stroke-opacity:1;stroke-dasharray:none" />
      <path
         inkscape:connector-curvature="0"
         id="rect3002-24-9"
         d="m 465.44227,345.37286 22.18916,0 c 2.39027,0 4.77926,1.13071 5.35647,2.53523 l 2.97686,7.24353 c 0.5772,1.40451 -0.8824,2.53523 -3.27266,2.53523 l -22.18917,0 c -2.39026,0 -4.77926,-1.13072 -5.35646,-2.53523 l -2.97686,-7.24353 c -0.57721,-1.40452 0.88239,-2.53523 3.27266,-2.53523 z"
         style="fill:#ececec;fill-opacity:1;stroke:#000000;stroke-width:1.16931701;stroke-linecap:round;stroke-miterlimit:4;stroke-opacity:1;stroke-dasharray:none" />
      <path
         inkscape:connector-curvature="0"
         id="rect3002-52-8"
         d="m 500.65554,345.37286 22.18916,0 c 2.39027,0 4.77925,1.13071 5.35647,2.53523 l 2.97686,7.24353 c 0.57721,1.40451 -0.88239,2.53523 -3.27266,2.53523 l -22.18916,0 c -2.39027,0 -4.77926,-1.13072 -5.35647,-2.53523 l -2.97686,-7.24353 c -0.57722,-1.40452 0.88239,-2.53523 3.27266,-2.53523 z"
         style="fill:#ececec;fill-opacity:1;stroke:#000000;stroke-width:1.16931701;stroke-linecap:round;stroke-miterlimit:4;stroke-opacity:1;stroke-dasharray:none" />
      <path
         inkscape:connector-curvature="0"
         id="rect3002-14-2"
         d="m 248.4711,345.47307 22.99053,0 c 2.47659,0 4.04408,1.13878 3.51452,2.55331 l -2.73104,7.29518 c -0.52954,1.41453 -2.94966,2.55331 -5.42624,2.55331 l -22.99053,0 c -2.4766,0 -4.04409,-1.13878 -3.51454,-2.55331 l 2.73105,-7.29518 c 0.52956,-1.41453 2.94966,-2.55331 5.42625,-2.55331 z"
         style="fill:#ececec;fill-opacity:1;stroke:#000000;stroke-width:1.19448125;stroke-linecap:round;stroke-miterlimit:4;stroke-opacity:1;stroke-dasharray:none" />
      <rect
         ry="13.603308"
         y="159.38733"
         x="245.46707"
         height="126.26907"
         width="283.85287"
         id="rect5760"
         style="fill:#ffccaa;stroke:#000000;stroke-width:2.5;stroke-linecap:round;stroke-miterlimit:4;stroke-opacity:1;stroke-dasharray:none" />
      <rect
         ry="13.603308"
         y="179.59038"
         x="266.68027"
         height="86.873116"
         width="243.44676"
         id="rect5762"
         style="fill:url(#linearGradient5800);fill-opacity:1;stroke:#000000;stroke-width:2.5;stroke-linecap:round;stroke-miterlimit:4;stroke-opacity:1;stroke-dasharray:none" />
    </g>
    <g
       id="g5806"
       transform="matrix(0.80639771,0,0,1,30.963808,65.659915)"
       inkscape:export-filename="C:\workspace\UsbTeatherWidget\path5810.png"
       inkscape:export-xdpi="108.04938"
       inkscape:export-ydpi="108.04938">
      <rect
         ry="13.603308"
         y="61.402534"
         x="51.51778"
         height="178.797"
         width="133.34013"
         id="rect5802"
         style="fill:#000000;fill-opacity:1;stroke:#000000;stroke-width:2.5;stroke-linecap:round;stroke-miterlimit:4;stroke-opacity:1;stroke-dasharray:none" />
      <rect
         ry="7.5423923"
         y="87.666504"
         x="71.720833"
         height="92.934036"
         width="92.934029"
         id="rect5804"
         style="fill:#ffffff;fill-opacity:1;stroke:#000000;stroke-width:2.5;stroke-linecap:round;stroke-miterlimit:4;stroke-opacity:1;stroke-dasharray:none" />
    </g>
    <g
       id="g5933"
       style="stroke:#ffcf00;stroke-opacity:1;filter:url(#filter5992)"
       transform="matrix(0.80639771,0,0,1,21.188791,36.365492)"
       inkscape:export-filename="C:\workspace\UsbTeatherWidget\path5810.png"
       inkscape:export-xdpi="108.04938"
       inkscape:export-ydpi="108.04938">
      <path
         sodipodi:open="true"
         transform="translate(-69.700529,12.255207)"
         sodipodi:end="7.0125248"
         sodipodi:start="5.4907578"
         d="m 283.12179,56.430469 c 13.80776,13.236799 14.50367,34.678299 1.58175,48.735111"
         sodipodi:ry="35.355339"
         sodipodi:rx="36.36549"
         sodipodi:cy="81.605583"
         sodipodi:cx="257.5889"
         id="path5894"
         style="fill:none;stroke:#ffcf00;stroke-width:20;stroke-linecap:round;stroke-linejoin:round;stroke-miterlimit:4;stroke-opacity:1;stroke-dasharray:none"
         sodipodi:type="arc" />
      <path
         sodipodi:open="true"
         transform="translate(-62.951763,12.901255)"
         sodipodi:end="7.0125248"
         sodipodi:start="5.4907578"
         d="m 302.27147,36.290377 c 24.16358,23.826238 25.38141,62.420938 2.76806,87.723193"
         sodipodi:ry="63.63961"
         sodipodi:rx="63.63961"
         sodipodi:cy="81.605583"
         sodipodi:cx="257.5889"
         id="path5894-8"
         style="fill:none;stroke:#ffcf00;stroke-width:20;stroke-linecap:round;stroke-linejoin:round;stroke-miterlimit:4;stroke-opacity:1;stroke-dasharray:none"
         sodipodi:type="arc" />
      <path
         sodipodi:open="true"
         transform="translate(-74.385812,13.939546)"
         sodipodi:end="7.0125248"
         sodipodi:start="5.4907578"
         d="M 334.18759,3.9223735 C 375.61087,44.767353 377.69859,110.92969 338.93283,154.305"
         sodipodi:ry="109.09647"
         sodipodi:rx="109.09647"
         sodipodi:cy="81.605583"
         sodipodi:cx="257.5889"
         id="path5894-0"
         style="fill:none;stroke:#ffcf00;stroke-width:20;stroke-linecap:round;stroke-linejoin:round;stroke-miterlimit:4;stroke-opacity:1;stroke-dasharray:none"
         sodipodi:type="arc" />
    </g>
    <rect
       style="fill:none;stroke:#100f09;stroke-width:5;stroke-linecap:round;stroke-linejoin:round;stroke-miterlimit:4;stroke-opacity:1;stroke-dasharray:none"
       id="rect3063"
       width="466.69049"
       height="466.69049"
       x="49.497475"
       y="28.067497"
       ry="1.2577018" />
  </g>
</svg>
